<svg width="20" height="23" viewBox="0 0 20 23" fill="none" xmlns="http://www.w3.org/2000/svg">
<path d="M9.99964 0.931465C11.3069 0.931065 12.5799 1.34972 13.6317 2.12599C14.6835 2.90225 15.4588 3.99524 15.8438 5.24454C16.2288 6.49383 16.2031 7.83363 15.7707 9.06728C15.3382 10.3009 14.5217 11.3635 13.4409 12.0989C15.3168 12.787 16.9438 14.0207 18.1126 15.6413C19.2813 17.2619 19.9383 19.1952 19.9989 21.1923C20.0046 21.3032 19.9881 21.414 19.9503 21.5184C19.9125 21.6228 19.8543 21.7186 19.7791 21.8002C19.7038 21.8818 19.613 21.9475 19.512 21.9935C19.411 22.0395 19.3018 22.0649 19.1908 22.0682C19.0799 22.0714 18.9694 22.0525 18.8658 22.0125C18.7623 21.9725 18.6678 21.9122 18.5879 21.8352C18.5079 21.7581 18.4442 21.6659 18.4004 21.5639C18.3566 21.4619 18.3336 21.3522 18.3327 21.2412C18.2665 19.0754 17.3596 17.0204 15.8042 15.5118C14.2488 14.0032 12.1671 13.1595 10.0002 13.1595C7.83334 13.1595 5.75162 14.0032 4.19619 15.5118C2.64076 17.0204 1.73385 19.0754 1.66766 21.2412C1.66103 21.4623 1.56684 21.6717 1.40581 21.8234C1.24478 21.975 1.0301 22.0565 0.809009 22.0499C0.587913 22.0432 0.378508 21.949 0.22686 21.788C0.0752115 21.627 -0.00625739 21.4123 0.000375486 21.1912C0.0612293 19.1943 0.718303 17.2612 1.88703 15.6408C3.05576 14.0205 4.68267 12.7869 6.55837 12.0989C5.47762 11.3635 4.66108 10.3009 4.22861 9.06728C3.79614 7.83363 3.77051 6.49383 4.15549 5.24454C4.54046 3.99524 5.31575 2.90225 6.36759 2.12599C7.41942 1.34972 8.69238 0.931065 9.99964 0.931465ZM5.55355 7.04485C5.55355 8.22402 6.02198 9.35491 6.85578 10.1887C7.68958 11.0225 8.82047 11.4909 9.99964 11.4909C11.1788 11.4909 12.3097 11.0225 13.1435 10.1887C13.9773 9.35491 14.4457 8.22402 14.4457 7.04485C14.4457 5.86567 13.9773 4.73479 13.1435 3.90098C12.3097 3.06718 11.1788 2.59875 9.99964 2.59875C8.82047 2.59875 7.68958 3.06718 6.85578 3.90098C6.02198 4.73479 5.55355 5.86567 5.55355 7.04485Z" fill="black"/>
</svg>
