<svg width="21" height="21" viewBox="0 0 21 21" fill="none" xmlns="http://www.w3.org/2000/svg">
<path d="M5.20588 9.32074V18.7325C5.20588 19.0445 5.08193 19.3438 4.8613 19.5644C4.64067 19.785 4.34143 19.909 4.02941 19.909H1.67647C1.36445 19.909 1.06521 19.785 0.84458 19.5644C0.623949 19.3438 0.5 19.0445 0.5 18.7325V10.4972C0.5 10.1852 0.623949 9.88595 0.84458 9.66532C1.06521 9.44469 1.36445 9.32074 1.67647 9.32074H5.20588ZM5.20588 9.32074C6.45396 9.32074 7.65092 8.82495 8.53344 7.94242C9.41597 7.0599 9.91177 5.86294 9.91177 4.61486V3.43839C9.91177 2.81435 10.1597 2.21587 10.6009 1.77461C11.0422 1.33335 11.6407 1.08545 12.2647 1.08545C12.8887 1.08545 13.4872 1.33335 13.9285 1.77461C14.3697 2.21587 14.6176 2.81435 14.6176 3.43839V9.32074H18.1471C18.7711 9.32074 19.3696 9.56864 19.8108 10.0099C20.2521 10.4512 20.5 11.0496 20.5 11.6737L19.3235 17.556C19.1543 18.2778 18.8334 18.8975 18.409 19.3219C17.9846 19.7463 17.4798 19.9523 16.9706 19.909H8.73529C7.79924 19.909 6.90152 19.5371 6.23962 18.8752C5.57773 18.2133 5.20588 17.3156 5.20588 16.3796" stroke="black" stroke-linecap="round" stroke-linejoin="round"/>
</svg>
