<svg width="40" height="40" viewBox="0 0 40 40" fill="none" xmlns="http://www.w3.org/2000/svg">
<g clip-path="url(#clip0_463_345)">
<path d="M20 39C30.4934 39 39 30.4934 39 20C39 9.50659 30.4934 1 20 1C9.50659 1 1 9.50659 1 20C1 30.4934 9.50659 39 20 39Z" stroke="#C1B59F"/>
<path d="M20.5139 34.5342H16.1802C15.4563 34.5342 14.8674 33.9351 14.8674 33.1986V23.2531H12.339C11.6152 23.2531 11.0263 22.6537 11.0263 21.9175V17.6558C11.0263 16.9193 11.6152 16.3202 12.339 16.3202H14.8674V14.1861C14.8674 12.07 15.5205 10.2697 16.7558 8.98011C17.9967 7.68462 19.7308 7 21.7707 7L25.0759 7.00546C25.7985 7.00672 26.3863 7.60584 26.3863 8.34108V12.298C26.3863 13.0345 25.7977 13.6336 25.074 13.6336L22.8487 13.6344C22.17 13.6344 21.9972 13.7728 21.9602 13.8153C21.8993 13.8857 21.8269 14.0846 21.8269 14.6339V16.3199H24.9068C25.1386 16.3199 25.3633 16.3781 25.5563 16.4878C25.9728 16.7245 26.2317 17.1722 26.2317 17.656L26.23 21.9177C26.23 22.6537 25.6412 23.2529 24.9173 23.2529H21.8269V33.1986C21.8269 33.9351 21.2378 34.5342 20.5139 34.5342ZM16.4539 32.92H20.2402V22.5304C20.2402 22.0387 20.6335 21.6387 21.1166 21.6387H24.6435L24.645 17.9343H21.1164C20.6333 17.9343 20.2402 17.5344 20.2402 17.0426V14.6339C20.2402 14.0033 20.3031 13.2861 20.771 12.7471C21.3363 12.0954 22.2272 12.0202 22.8483 12.0202L24.7998 12.0194V8.61922L21.7695 8.61417C18.4912 8.61417 16.4539 10.7493 16.4539 14.1861V17.0426C16.4539 17.5341 16.0608 17.9343 15.5777 17.9343H12.6128V21.6387H15.5777C16.0608 21.6387 16.4539 22.0387 16.4539 22.5304V32.92Z" fill="black"/>
</g>
<defs>
<clipPath id="clip0_463_345">
<rect width="40" height="40" fill="white"/>
</clipPath>
</defs>
</svg>
