<svg width="40" height="40" viewBox="0 0 40 40" fill="none" xmlns="http://www.w3.org/2000/svg">
<g clip-path="url(#clip0_463_333)">
<path fill-rule="evenodd" clip-rule="evenodd" d="M39 19.9999C39 30.4934 30.4935 39 20 39C9.50655 39 1 30.4934 1 19.9999C1 9.5066 9.50655 1 20 1C30.4935 1 39 9.5066 39 19.9999Z" stroke="#C1B59F"/>
<path d="M29.8906 12H10.1094C8.94392 12 8 12.9568 8 14.125V26.875C8 28.0501 8.95086 29 10.1094 29H29.8906C31.0463 29 32 28.0541 32 26.875V14.125C32 12.9589 31.0598 12 29.8906 12ZM29.5952 13.4167C29.1642 13.8485 21.7476 21.2807 21.4916 21.5373C21.0931 21.9387 20.5634 22.1597 20 22.1597C19.4366 22.1597 18.9069 21.9387 18.5071 21.536C18.3349 21.3634 11.0001 14.0133 10.4048 13.4167H29.5952ZM9.40625 26.5867V14.4142L15.483 20.5038L9.40625 26.5867ZM10.4057 27.5833L16.4801 21.5029L17.5141 22.5391C18.1781 23.208 19.061 23.5764 20 23.5764C20.939 23.5764 21.8219 23.208 22.4846 22.5404L23.5199 21.5029L29.5943 27.5833H10.4057ZM30.5938 26.5867L24.517 20.5038L30.5938 14.4142V26.5867Z" fill="black"/>
</g>
<defs>
<clipPath id="clip0_463_333">
<rect width="40" height="40" fill="white"/>
</clipPath>
</defs>
</svg>
