<svg width="22" height="21" viewBox="0 0 22 21" fill="none" xmlns="http://www.w3.org/2000/svg">
<path d="M5.70588 9.32074V18.7325C5.70588 19.0445 5.58193 19.3438 5.3613 19.5644C5.14067 19.785 4.84143 19.909 4.52941 19.909H2.17647C1.86445 19.909 1.56521 19.785 1.34458 19.5644C1.12395 19.3438 1 19.0445 1 18.7325V10.4972C1 10.1852 1.12395 9.88595 1.34458 9.66532C1.56521 9.44469 1.86445 9.32074 2.17647 9.32074H5.70588ZM5.70588 9.32074C6.95396 9.32074 8.15092 8.82495 9.03344 7.94242C9.91597 7.0599 10.4118 5.86294 10.4118 4.61486V3.43839C10.4118 2.81435 10.6597 2.21587 11.1009 1.77461C11.5422 1.33335 12.1407 1.08545 12.7647 1.08545C13.3887 1.08545 13.9872 1.33335 14.4285 1.77461C14.8697 2.21587 15.1176 2.81435 15.1176 3.43839V9.32074H18.6471C19.2711 9.32074 19.8696 9.56864 20.3108 10.0099C20.7521 10.4512 21 11.0496 21 11.6737L19.8235 17.556C19.6543 18.2778 19.3334 18.8975 18.909 19.3219C18.4846 19.7463 17.9798 19.9523 17.4706 19.909H9.23529C8.29924 19.909 7.40152 19.5371 6.73962 18.8752C6.07773 18.2133 5.70588 17.3156 5.70588 16.3796" stroke="black" stroke-linecap="round" stroke-linejoin="round"/>
</svg>
