<svg width="40" height="40" viewBox="0 0 40 40" fill="none" xmlns="http://www.w3.org/2000/svg">
<g clip-path="url(#clip0_463_317)">
<path fill-rule="evenodd" clip-rule="evenodd" d="M39 19.9999C39 30.4934 30.4935 39 20 39C9.50655 39 1 30.4934 1 19.9999C1 9.5066 9.50655 1 20 1C30.4935 1 39 9.5066 39 19.9999Z" stroke="#C1B59F"/>
<path d="M32.7422 19.5657C32.7422 25.9528 27.5241 31.1306 21.0859 31.1306C19.0428 31.1306 17.1236 30.608 15.4529 29.6929L9 31.7422L11.1035 25.5355C10.0428 23.7935 9.432 21.7481 9.432 19.5649C9.43277 13.1778 14.6493 8 21.0875 8C27.5249 8.00155 32.7422 13.1786 32.7422 19.5657ZM21.0852 9.84413C15.6821 9.84413 11.287 14.2059 11.287 19.568C11.287 21.6955 11.9806 23.665 13.1535 25.2676L11.9303 28.8777L15.6945 27.6815C17.2428 28.6973 19.0955 29.2888 21.0852 29.2888C26.4883 29.2888 30.8849 24.9277 30.8849 19.5657C30.8865 14.2059 26.489 9.84413 21.0852 9.84413ZM26.9721 22.2297C26.8994 22.1128 26.7089 22.0415 26.424 21.8991C26.1399 21.7566 24.7332 21.0715 24.4723 20.9786C24.209 20.8834 24.0186 20.8354 23.8281 21.1195C23.64 21.4036 23.0919 22.0415 22.9239 22.232C22.7574 22.4217 22.591 22.4457 22.3053 22.3055C22.0196 22.1615 21.0983 21.8643 20.0067 20.8988C19.1574 20.1463 18.5837 19.2196 18.4181 18.9355C18.2501 18.6521 18.401 18.4988 18.5427 18.3579C18.6705 18.2302 18.8284 18.0266 18.9716 17.8601C19.1148 17.6952 19.1621 17.5783 19.2573 17.3886C19.351 17.199 19.3037 17.0341 19.2333 16.8908C19.1621 16.7484 18.5915 15.3548 18.3523 14.7874C18.1146 14.2206 17.8769 14.3143 17.7097 14.3143C17.5432 14.3143 17.3528 14.2911 17.1623 14.2911C16.9719 14.2911 16.6622 14.36 16.4013 14.6441C16.1404 14.9283 15.4018 15.6134 15.4018 17.0085C15.4018 18.4052 16.4245 19.7515 16.5677 19.9404C16.7117 20.1285 18.545 23.0852 21.449 24.2201C24.3546 25.3543 24.3546 24.9757 24.8779 24.9277C25.4028 24.8797 26.5688 24.2426 26.8057 23.5814C27.0441 22.9172 27.0441 22.3481 26.9721 22.2297Z" fill="black"/>
</g>
<defs>
<clipPath id="clip0_463_317">
<rect width="40" height="40" fill="white"/>
</clipPath>
</defs>
</svg>
